<svg
    id="visual"
    viewBox="0 0 900 600"
    width="900"
    height="600"
    xmlns="http://www.w3.org/2000/svg"
    xmlns:xlink="http://www.w3.org/1999/xlink"
    version="1.1"
    >
    <g transform="translate(459.39457087507327 309.7580809292021)">
        <path
        d="M145.7 -154.3C170.7 -120.7 160.3 -60.3 165.5 5.2C170.7 70.7 191.4 141.4 166.4 166.8C141.4 192.1 70.7 172 9.8 162.3C-51.1 152.5 -102.3 153 -136.1 127.6C-170 102.3 -186.5 51.1 -193.8 -7.3C-201.1 -65.8 -199.2 -131.5 -165.4 -165.2C-131.5 -198.9 -65.8 -200.4 -2.7 -197.7C60.3 -195 120.7 -188 145.7 -154.3"
        fill="#ff7300"
        ></path>
    </g>

    <g transform="translate(498.51342507497526 287.6098154770524)">
        <path
        d="M149 -149C174 -124 162 -62 149.3 -12.7C136.5 36.5 123.1 73.1 98.1 102.9C73.1 132.7 36.5 155.9 -16.7 172.6C-70 189.3 -140 199.7 -190 169.8C-240 140 -270 70 -258 12C-246 -46 -191.9 -91.9 -141.9 -116.9C-91.9 -141.9 -46 -146 8 -154C62 -162 124 -174 149 -149"
        fill="#ff7300"
        ></path>
    </g>
</svg>