<svg width="1601" height="1650" viewBox="0 0 1601 1650" fill="none" xmlns="http://www.w3.org/2000/svg">
<path d="M1018.9 1126.07C1025.24 1134.06 1022.05 1137.05 1030.67 1151.02C1039.19 1164.75 1055.44 1225.3 1066.97 1252.67C1076.6 1275.5 1086.52 1282.17 1087.15 1277.4C1088.35 1267.9 1082.9 1254.6 1091.95 1247C1096.27 1243.36 1102.44 1242.91 1107.98 1244.01C1114.93 1245.36 1111.23 1243.02 1113.79 1241.93C1122.35 1238.29 1124.23 1241.23 1130.65 1244.06C1158.73 1256.36 1037.79 1129.43 997.094 1060.94C994.974 1057.35 993.709 1055.51 991.583 1054.69C988.045 1053.32 986.217 1049.85 980.711 1044.54C973.752 1037.74 977.022 1042.84 967.584 1028.85C962.13 1020.73 966.215 1020.31 976.218 1012.94C980.427 1009.58 993.252 1029.96 994.252 1030.88C998.866 1035.09 1003.39 1035.57 1010.96 1044.86C1030.23 1068.38 1034.04 1070.32 1044.61 1084.5C1060.68 1106 1053.2 1113.11 1145.96 1171.69C1148.69 1173.4 1149.82 1167.77 1147.37 1165.39C1130.88 1149.15 1109.85 1127.85 1105.51 1117.42C1094.71 1091.55 1030.1 1040.89 1017.67 1018.79C1008.21 1002.11 994.278 998.92 998.715 992.175C1000.17 989.925 1003.11 987.579 1010.57 979.008C1014.82 974.053 1031.84 988.774 1028.44 994.599C1026.81 997.485 1031.17 1001.72 1035.44 1007.15C1039.14 1011.84 1036.52 1012.66 1043.64 1017.05C1050.68 1021.37 1048.35 1024.18 1048.96 1027.11C1049.07 1027.67 1162.25 1118.99 1187.45 1134.3C1221.95 1155.2 1220.15 1166.33 1239.1 1181.64C1261.1 1199.39 1278.46 1205.17 1294.94 1222.04C1300.92 1228.15 1306.79 1234.39 1314.22 1238.87C1316.52 1240.26 1319.33 1240.83 1321.73 1243.3C1321.21 1242.86 1323.27 1245.09 1324.13 1244.51C1329.32 1241.01 1306.2 1213.17 1291.36 1182.38C1279.39 1157.56 1286.51 1156.58 1270.68 1146.84C1259.98 1140.25 1259.11 1146.82 1248.23 1139.79C1244.09 1137.13 1240.3 1138.07 1240.25 1131.7C1240.19 1125.18 1236.6 1110.19 1242.86 1108.34C1247.67 1106.87 1256.59 1114.87 1264.83 1115.12C1276.46 1115.46 1285.13 1119.65 1296.31 1119.54C1314.81 1119.32 1303.3 1113.02 1337.38 1118.76C1338.68 1118.98 1401.45 1129.47 1402.12 1128.23C1402.81 1126.93 1393.15 1117.48 1372.56 1110.99C1343.89 1101.94 1327.98 1103.77 1322.34 1098.72C1310.41 1088.03 1238.71 1080.68 1187.21 1058.87C1165.05 1049.46 1165.9 1049.03 1172.24 1026.44C1175.75 1012.99 1178.05 1016.68 1162.67 1010.36C1122.55 993.794 1060.46 939.011 1042.01 940.571C1040.3 940.72 1040.78 942.03 1038.12 941.284C1023.69 937.211 1032.15 933.205 1037.31 918.897C1042.14 906.303 1041.37 905.623 1045.23 906.923C1056.15 910.579 1059.59 913.178 1063.44 915.763C1080.49 927.089 1139.02 935.26 1193.71 959.655C1197.33 961.27 1196.46 962.336 1203.66 942.926C1207.2 933.863 1206.68 934.566 1213.54 936.218C1229.03 939.916 1224.95 942.535 1232.12 944.769C1255.66 952.08 1274.49 968.962 1278.18 961.67C1281.13 955.713 1269.67 950.903 1258.57 932.7C1244.31 909.547 1276.13 918.131 1196.77 902.605C1086.37 881.159 1087.94 882.665 1086.22 879.541C1084.94 877.205 1084.86 876.567 1082.16 875.668C1075.86 873.584 1065.75 874.532 1064.82 877.779C1064.12 880.44 1055.54 881.662 1051.03 880.401C1047.64 879.456 1051.62 876.313 1053.34 850.902C1054.61 850.909 1055.81 850.731 1057.15 850.923C1069.9 852.773 1085.79 850.043 1096.01 849.937C1114.64 849.739 1108.75 853.452 1128.61 853.606C1271.69 854.475 1208.03 862.299 1231.88 843.787C1246.41 832.488 1253.28 835.649 1261.88 839.186C1289.68 850.746 1294.75 849.409 1295.78 856.1C1296.26 859.187 1297.59 860.478 1298.91 862.072C1303.86 868.059 1300.63 874.231 1304.55 875.205C1312.39 877.182 1310.43 871.64 1320.76 866.018C1328.29 861.905 1339.14 859.123 1347.8 860.219C1354.95 861.123 1357.52 863.256 1365.61 873.103C1367.65 875.593 1369.37 877.876 1370.95 880.759C1379.57 896.598 1361.83 912.86 1353.87 916.325C1345.86 919.844 1329.06 914.981 1321 912.296C1318.1 911.331 1316.38 909.677 1315.62 906.906C1313.28 898.1 1301.85 900.853 1298.05 907.029C1296.37 909.713 1297.22 912.064 1294.72 916.551C1289.21 926.661 1271.45 924.949 1286.76 942.412C1296.73 953.771 1298.2 946.941 1309.24 954.354C1319.1 961.041 1316.31 950.627 1328.23 952.809C1354.88 957.709 1360.61 964.45 1380.64 969.677C1410.6 977.485 1428.1 981.718 1464.19 995.909C1490.83 1006.42 1500.7 1008.18 1500.22 1030.3C1499.85 1045.33 1494.62 1059.68 1510.14 1065.48C1559.8 1084.05 1568.84 1077.1 1572.9 1104.08C1575.24 1120.63 1574.35 1125.37 1572.48 1129.65C1558.91 1161.26 1534.01 1167.2 1499.51 1158.78C1486.59 1155.64 1479.76 1156.92 1471.81 1148.06C1463.89 1139.34 1458.07 1154.84 1446.52 1163.88C1439.19 1169.56 1433.85 1169.39 1423.69 1169.06C1412.1 1168.7 1394.1 1166.77 1368.32 1161.19C1299.89 1146.34 1283.76 1134.96 1303.58 1156.27C1353.33 1209.96 1348.98 1208.15 1346.86 1210.85C1345.91 1212.06 1346.84 1212.67 1348.02 1212.44C1356.02 1210.85 1360.3 1215.83 1364.23 1221.14C1409.37 1281.84 1395.02 1291.43 1380.7 1321.27C1376.9 1329.23 1383.22 1334.63 1385.79 1331.61C1389.38 1327.41 1391.99 1325.36 1394.42 1328.7C1398.06 1333.76 1401.8 1330.89 1403.1 1331.87C1409.99 1337.1 1422.67 1328.45 1420.45 1338.02C1418.26 1347.22 1429.44 1345.9 1441.32 1354.55C1441.52 1354.69 1441.85 1354.67 1442.12 1354.73C1442 1352.32 1441.22 1351.99 1442.2 1351.24C1443.38 1350.33 1448.36 1356.82 1448.96 1357.69C1455.09 1366.64 1443.28 1373.79 1437.64 1392.48C1433.26 1407.55 1415.54 1419.3 1401.7 1426.69C1379.34 1438.25 1380.04 1441.53 1348.2 1412.65C1346.34 1410.97 1343.34 1409.54 1341.13 1407.26C1332.55 1398.41 1353.76 1375.55 1307.86 1393.86C1288.1 1401.68 1277.95 1407.77 1264.07 1407.39C1245.96 1406.79 1206.72 1381.88 1192.41 1370.95C1183.34 1364 1200.74 1360.23 1188.85 1351.03C1172.91 1338.66 1163.89 1334.17 1149.83 1313.07C1113.28 1258.16 1114.41 1255.2 1105.79 1256.63C1099.44 1257.69 1099.27 1263.37 1099.75 1270.09C1100.16 1275.75 1102.01 1278.97 1105 1281.64C1110.89 1286.92 1113.12 1285.51 1110.02 1303.38C1105.72 1328.1 1087.72 1321.57 1095.81 1334.14C1102.93 1345.16 1106.61 1339.14 1110.43 1347.09C1118.91 1364.7 1124.06 1380.23 1115.2 1391.42C1108.45 1399.79 1098.51 1406.06 1087.56 1404.06C1069.57 1400.91 1061.61 1382.04 1041.06 1354.27C1025.46 1333.13 1010.82 1325.39 1012.01 1321.08C1014.37 1312.86 1000.58 1298.82 993.813 1271.23C978.848 1210.49 995.163 1254.43 956.467 1184.32C954.688 1181.09 937.434 1149.47 941.109 1148.79C946.187 1147.8 951.382 1144.77 954.252 1143.4C955.486 1142.8 935.02 1081.91 934.434 1081.06C933.193 1079.16 932.833 1081.23 930.835 1076.42C926.031 1064.83 926.018 1067.45 934.746 1063.55C938.756 1061.64 938.63 1062.55 940.955 1068.19C943.787 1073.13 955.26 1096.16 970.661 1133.6C973.58 1140.74 974.863 1134.26 978.134 1134.44C982.06 1134.62 954.883 1080.45 951.619 1070.38C949.836 1064.91 943.368 1060.79 947.69 1057.83C948.267 1057.44 954.903 1054.05 955.525 1053.73C960.097 1051.3 960.704 1049.59 962.612 1053.28C966.053 1059.93 961.101 1059.99 964.513 1071.35C967.609 1081.59 969.119 1077.65 978.502 1097.5C994.915 1132.23 997.007 1134.12 1008.56 1127.17C1014.87 1123.31 1015.65 1121.96 1018.9 1126.07ZM1010.52 1270.29C1010.76 1272.42 1019 1296.64 1021.4 1295.51C1025.8 1293.46 1020.83 1276.25 1010.52 1270.29ZM1074.36 865.836C1086.64 867.183 1085.7 866.933 1078.95 863.057C1074.99 860.803 1068.62 860.747 1066.55 863.819C1065.55 865.329 1070.75 865.386 1074.36 865.836ZM1399.61 1016.6C1402.78 1017.6 1425.39 1025.94 1426.92 1019.31C1427.22 1017.92 1429.38 1018.62 1387.05 998.699C1331.33 972.612 1325.48 970.861 1311.89 971.674C1307.64 971.943 1302.07 974.564 1307.32 977.219C1351.88 999.803 1355.6 988.657 1371.76 1002.79C1376.45 1006.86 1381.81 1011.64 1399.61 1016.6ZM1118.09 965.145C1143.07 972.067 1171.81 992.311 1184.94 995.054C1187.6 995.606 1187.09 996.398 1190.82 982.64C1191.76 979.327 1186.44 982.005 1145.37 962.429C1126.53 953.437 1110.35 944.679 1090.62 936.623C1047.27 918.886 1042.93 924.269 1045.48 926.394C1052.99 932.671 1057.05 936.246 1065.19 940.852C1073.62 945.631 1108.84 962.568 1118.09 965.145ZM1163.7 1294.83C1182.5 1312.38 1199.77 1318.55 1206.91 1329.88C1209.91 1334.67 1220.69 1334.79 1217.74 1330.99L1211.31 1322.61L1211.21 1322.69C1175.48 1280.7 1197.7 1306.15 1165.2 1272.47C1143.91 1250.48 1125.31 1259.01 1163.7 1294.83Z" fill="#FFF2DF"/>
<path d="M598.064 1116.29C587.779 1128.43 534.55 1163.09 512.499 1182.11C493.706 1198.33 490.482 1209.79 495.185 1208.93C497.423 1208.51 502.071 1206.65 511.04 1203.24C521.959 1199.12 531.782 1204.9 533.367 1218.47C534.207 1225.52 535.327 1221.25 537.142 1223.36C543.203 1230.36 541.03 1233.09 540.294 1240.05C537.163 1271.03 619.642 1117.78 673.473 1056.68C676.24 1053.54 677.59 1051.79 677.72 1049.51C677.942 1045.71 680.675 1042.91 684.038 1036.03C688.376 1027.3 684.512 1032.01 694.925 1018.72C701.018 1010.98 702.688 1014.84 712.713 1022.05C715.972 1024.16 707.731 1036.38 703.724 1041.3C701.02 1044.62 701.426 1043.07 698.545 1053.11C695.564 1063.6 692.49 1063.79 679.337 1087.15C647.981 1143.04 645.315 1108.57 613.847 1232.35C613.061 1235.47 618.754 1234.82 620.268 1231.76C662.147 1148.21 646.999 1198.97 674.382 1146.23C709.682 1078.3 711.114 1072.58 719.756 1063.19C725.222 1057.19 726.139 1056.04 726.876 1054.29C735.971 1032.2 734.888 1034.76 749.477 1041.58C754.964 1044.38 757.247 1043.59 757.088 1048.56C756.861 1055.58 750.665 1066.88 745.821 1065.84C742.613 1065.2 739.936 1070.65 736.109 1076.4C732.796 1081.37 731.231 1079.14 729.241 1087.27C726.759 1097.48 721.865 1092.61 719.743 1097.38C719.743 1097.38 717.22 1106.34 698.349 1156.79C677.086 1213.14 667.638 1236.99 662.143 1260.26C650.353 1310.45 640.149 1290.2 622.958 1358.4C613.959 1393.88 606.11 1394.93 601.878 1413.15C601.27 1415.76 601.597 1418.61 599.995 1421.66C600.252 1421.03 598.764 1423.67 599.583 1424.31C603.708 1427.54 617.636 1406.98 637.175 1385.7C668.172 1351.77 670.968 1364.04 675.964 1343.27C678.913 1331.05 672.393 1332.27 675.707 1319.75C676.951 1314.98 674.887 1311.68 680.927 1309.65C686.863 1307.64 700.252 1299.48 703.933 1304.88C706.812 1309.12 701.982 1319.96 704.305 1327.87C706.519 1335.38 706.645 1342 707.554 1348.72C710.432 1369.85 717.534 1366.83 721.095 1384.24C721.775 1387.52 733.013 1462.16 734.527 1462.42C735.711 1462.63 746.918 1447.11 738.454 1394.42C734.022 1366.71 741.723 1389.36 738.728 1349.5C737.092 1327.7 728.123 1254.25 735.903 1221.28C738.07 1212.08 742.858 1213.25 769.386 1211.85C770.434 1211.81 770.87 1211.8 771.157 1210.1C772.456 1202.5 770.369 1192.73 780.194 1155.98C788.741 1124.18 806.112 1073.8 800.916 1061.81C800.42 1060.66 797.425 1060.43 799.874 1051.74C801.005 1047.72 801.285 1048.31 807.024 1049.07C831.677 1053.05 834.485 1048.61 834.422 1054.47C834.134 1088.92 825.436 1047.05 832.249 1164.93C835.645 1221.82 818.421 1214.62 846.603 1216.18C859.099 1216.98 858.238 1215.83 858.838 1223.65C860.09 1239.55 856.318 1236.43 856.397 1243.93C856.561 1258.23 852.391 1275.31 851.297 1286.93C850.506 1295.09 857.856 1293.5 859.448 1290.69C879.71 1255.41 883.852 1259.42 889.593 1255.89C896.874 1251.42 868.322 1090.66 873.844 1085.01C875.686 1083.11 876.272 1082.86 876.3 1080.01C876.346 1073.08 872.125 1063.83 868.954 1064.12C866.228 1064.38 862.36 1056.42 862.182 1051.8C862.052 1048.5 862.562 1051.49 890.826 1045C893.209 1052.55 892.42 1054.02 897.79 1067.61C902.393 1079.33 907.526 1089.3 908.048 1100.74C908.686 1113.72 912.068 1116.72 927.26 1169.39C938.706 1208.92 936.901 1212.61 941.248 1210.37C948.313 1206.85 958.23 1217.1 963.236 1223.19C967.03 1227.84 966.417 1233.2 965.594 1245.02C963.969 1270.83 965.878 1274.64 960.37 1277.3C956.026 1279.43 956.479 1282.22 953.386 1284.88C949.477 1288.27 944.698 1288.15 944.927 1291.53C945.452 1299.49 950.092 1295.99 958.642 1304.15C968.066 1313.07 976.62 1329.71 971.202 1339.58C958.362 1363.29 951.574 1364.99 937.798 1360.9C916.2 1354.48 914.472 1342.08 914.687 1318.54C914.716 1315.48 915.754 1313.28 918.165 1311.75C922.64 1308.92 922.404 1304.4 920.133 1300.74C913.489 1290.08 907.576 1298.81 897.381 1292.77C891.71 1289.31 884.071 1275.49 872.612 1300.77C869.991 1306.64 873.863 1310.4 871.025 1320.25C867.686 1331.64 876.756 1325.92 878.336 1337.87C880.06 1351.01 879.836 1359.57 879.261 1367.45C876.911 1400.07 879.451 1392.48 880.31 1433.2C880.622 1448.71 879.56 1500.32 875.606 1511.22C867.165 1534.4 828.533 1519.95 827.403 1545.61C824.819 1605.36 837.398 1606.59 797.296 1622.93C790.498 1625.59 786.309 1625.1 780.54 1623.94C757.302 1619.06 739.117 1608.17 735.762 1564.48C734.726 1551.25 731.391 1545.17 737.332 1534.84C741.288 1527.92 734.896 1525.32 726.945 1521.97C709.546 1514.55 696.533 1516.18 689.418 1397.89C686.284 1345.92 686.201 1363.37 657.127 1412.55C642.014 1438.08 641.921 1436.71 638.71 1435.54C637.262 1435.02 636.969 1436.09 637.557 1437.14C641.554 1444.25 638.146 1449.87 634.315 1455.24C624.35 1469.3 609.347 1488.84 595.083 1498.33C568.987 1515.57 542.932 1494.41 535.221 1504.79C530.01 1511.81 546.128 1510.37 541.185 1517.16C537.498 1522.19 541.397 1524.86 540.866 1526.41C539.472 1530.41 541.745 1534.87 543.232 1538.33C548.018 1549.59 535.676 1539.08 533.939 1552.27C533.353 1556.68 533.432 1562.72 531.139 1569.77C531.061 1570 531.185 1570.31 531.215 1570.59C533.476 1569.73 533.544 1568.89 534.569 1569.59C535.804 1570.43 531.167 1577.17 530.514 1578.01C523.884 1586.6 513.463 1577.57 493.805 1577.94C473.227 1578.42 451.519 1556.66 438.638 1542.07C432.876 1535.51 432.339 1531.11 446.835 1498.95C447.864 1496.66 448.298 1493.37 449.791 1490.56C455.573 1479.66 483.898 1492.78 452.275 1454.77C437.728 1437.07 421.772 1423.95 424.667 1401.15C427.439 1379.47 431.267 1358.47 438.54 1337.86C442.363 1327.12 451.311 1342.46 456.41 1328.33C459.673 1319.36 461.839 1311.87 465.062 1304.44C475.346 1280.72 510.046 1245.4 520.666 1228.91C523.816 1224.02 520.118 1214.98 513.182 1216.52C505.53 1218.23 499.533 1220.66 496.64 1227.22C493.423 1234.45 495.468 1236.14 477.504 1238.68C452.717 1242.17 453.304 1223.12 443.878 1234.65C435.588 1244.82 442.439 1246.47 436.054 1252.55C422.666 1265.32 408.999 1275.9 395.368 1270.76C374.365 1262.79 367.449 1243.92 383.239 1221.87C393.767 1207.17 401.508 1197.72 407.848 1188.83C423.133 1167.45 425.957 1151.14 430.424 1150.94C438.974 1150.63 448.055 1133.16 472.187 1118.2C487.602 1108.61 495.386 1106.78 504.948 1098.38C514.544 1089.96 527.509 1071.46 551.961 1046.66C573.839 1024.51 571.678 1029.83 574.201 1033.14C575.675 1035.02 577.337 1036.75 578.985 1038.48C582.545 1042.14 581.757 1042.13 584.973 1039.79C666.404 980.227 621.047 1012.56 637.968 998.053C647.298 990.069 646.099 991.763 647.23 993.149C652.266 998.777 653.02 999.357 653.256 1000.36C653.5 1001.4 638.931 1015.31 638.155 1016.05C599.278 1053.02 590.839 1055.34 594.228 1058.08C595.252 1058.91 597.097 1059.49 597.53 1061.1C598.574 1064.92 641.741 1022.32 650.307 1016.14C654.821 1012.87 653.633 1011.86 655.925 1009.68C659.727 1006.05 660.253 1007.82 664.655 1012.04C671.441 1018.84 673.061 1018.43 670.08 1021.44C666.81 1024.74 664.764 1024.25 661.817 1024.84C650.284 1027.21 646.991 1036.86 632.853 1050.15C601.448 1079.66 604.193 1079.17 617.342 1090.92C625.247 1097.7 608.506 1104.01 598.064 1116.29ZM478.278 1133.8C476.322 1134.68 455.839 1150.01 457.653 1151.95C460.97 1155.5 475.8 1145.46 478.278 1133.8ZM883.232 1069.51C885.718 1081.62 885.667 1080.65 887.273 1073.09C888.193 1068.53 886.235 1062.54 882.753 1061.49C881.016 1060.96 882.554 1065.94 883.232 1069.51ZM839.679 1425.43C839.701 1428.75 838.761 1452.84 845.508 1452.18C846.932 1452.03 846.899 1454.31 852.794 1407.97C860.413 1346.87 860.321 1340.74 855.347 1328.08C853.806 1324.17 849.563 1319.72 848.655 1325.48C840.887 1374.76 852.682 1374.77 844.209 1394.62C841.781 1400.37 838.899 1406.98 839.679 1425.43ZM801.247 1141.78C802.457 1167.66 792.11 1201.27 793.598 1214.61C793.859 1216.93 793.781 1217.01 799.554 1216.68C811.229 1215.9 808.349 1219.61 809.127 1202.27C810.665 1168.39 827.331 1079.65 818.547 1061.87C816.17 1057.05 815.279 1061.44 813.078 1066.89C810.855 1072.48 809.314 1076.98 807.895 1083.96C805.977 1093.41 800.808 1132.15 801.247 1141.78ZM502.148 1287.11C491.22 1310.45 490.656 1328.75 482.083 1339.01C478.456 1343.33 481.645 1353.64 484.359 1349.67L490.353 1340.97L490.251 1340.89C519.211 1293.98 501.883 1322.85 523.893 1281.66C538.237 1254.78 524.491 1239.35 502.148 1287.11Z" fill="#FFF2DF"/>
<path d="M497.086 693.979C472.482 683.913 405.38 621.354 380.295 622.307C367.712 622.777 394.907 636.643 391.144 652.207C389.793 657.624 385.058 661.66 379.917 664.021C373.475 666.998 377.878 666.739 376.436 669.12C371.672 677.05 368.386 675.822 361.542 677.281C331.583 683.808 503.22 715.274 577.165 747.094C580.984 748.744 583.09 749.493 585.292 748.92C588.962 747.976 592.476 749.702 600.05 750.786C609.685 752.23 604.009 750.014 619.87 755.804C628.986 759.151 626.088 761.679 622.301 773.531C621.289 777.231 607.147 773.203 601.215 770.924C597.211 769.391 598.804 769.297 588.388 769.653C577.489 770.046 576.291 767.19 550.048 761.945C489.374 749.912 517.763 736.393 391.691 744.771C388.486 744.994 390.898 750.205 394.281 750.691C486.797 764.537 433.691 765.892 492.376 775.526C567.91 787.954 573.771 787.536 585.424 792.833C592.847 796.169 594.217 796.681 596.109 796.837C622.964 798.846 615.968 798.24 614.615 820.704C614.251 827.049 591.937 825.611 590.988 818.621C590.519 815.3 584.508 814.439 577.956 812.6C572.187 810.98 573.788 808.773 565.466 809.422C562.76 809.638 558.715 809.246 557.35 807.228C553.693 801.611 561.812 804.659 489.784 801.644C349.687 795.366 368.235 803.908 340.164 797.364C319.613 792.593 319.315 789.536 274.705 792.589C239.065 794.988 234.175 787.966 216.126 789.54C213.453 789.773 210.86 790.964 207.464 790.387C208.142 790.436 205.166 789.843 204.819 790.817C203.576 794.33 215.557 798.911 232.204 805.624C300.011 832.762 281.638 840.116 305.528 838.259C317.985 837.293 314.931 831.462 327.855 830.75C335.959 830.273 333.873 826.471 341.275 835.484C344.135 838.926 360.008 852.188 345.243 855.712C320.966 861.537 336.381 857.857 319.453 865.748C309.853 870.243 300.363 873.075 291.858 884.386C285.878 892.329 279.199 894.43 247.796 910.238C245.45 911.42 209.998 929.611 210.119 930.519C210.275 931.702 228.469 937.599 276.106 913.392C301.012 900.716 281.834 914.93 318.893 899.882C338.997 891.709 406.468 860.483 440.056 857.753C449.017 857.018 449.513 860.633 459.345 886.831C460.116 888.811 459.888 888.45 473.161 885.226C515.557 875.018 598.256 882.833 611.779 870.835C612.78 869.967 612.064 867.071 621.09 866.741C626.821 866.53 623.756 866.92 628.676 886.924C631.766 898.683 632.784 898.754 628.947 899.956C596.045 910.308 633.052 889.359 523.209 931.957C502.955 939.857 499.019 940.023 477.812 944.507C475.475 945 474.857 945.63 474.909 946.551C474.969 947.551 480.981 968.036 481.098 970.493C481.254 973.264 479.543 973.468 475.532 975.124C460.821 981.233 462.587 976.715 455.471 979.119C441.866 983.729 424.281 985.08 413.035 987.607C405.094 989.385 408.628 995.828 411.967 996.501C421.71 998.446 437.603 1001.87 446.142 1006.85C466.593 1018.68 425.621 1029.37 598.015 950.664C610.465 944.958 610.398 945.488 611.872 946.197C614.264 947.342 614.705 947.809 617.417 946.95C623.888 944.89 631.446 938.066 630.207 935.063C629.219 932.493 635.464 926.459 639.827 924.841C643.183 923.594 641.819 928.722 655.239 949.965C654.208 950.705 653.334 951.555 652.142 952.186C640.739 958.195 629.338 969.808 621.279 975.789C606.364 986.863 608.845 980.503 592.722 992.017C563.119 1013.24 543.821 1026.75 523.625 1039.44C499.529 1054.57 525.041 1041.38 512.107 1067.6C505.757 1080.54 506.653 1078.57 466.007 1089.4C460.921 1090.76 458.602 1090.87 456.029 1088.24C451.573 1083.65 448.883 1087.54 442.439 1080.27C440.086 1077.63 438.917 1077.47 437.691 1077.97C428.212 1081.78 438.369 1088.23 422.174 1106.62C409.499 1121.02 401.381 1118.61 389.55 1115.53C384.139 1114.09 378.183 1112.11 374.26 1108.08C366.701 1100.21 367.773 1074.09 379.668 1067.47C386.985 1063.4 394.653 1060.13 402.607 1057.61C405.501 1056.7 407.931 1057 410.144 1058.81C418.154 1065.36 427.037 1052.83 423.524 1045.53C415.347 1029.29 434.272 1021.97 419.268 1015.24C401.796 1007.4 400.423 1016.19 387.43 1016.66C375.521 1017.05 383.897 1023.83 372.968 1029.07C348.517 1040.76 339.929 1038.67 320.641 1046.21C291.813 1057.49 275.162 1064.34 237.624 1074.06C209.875 1081.2 200.871 1085.58 188.258 1067.39C179.739 1055.02 175.541 1040.33 159.571 1044.76C108.471 1058.9 105.232 1069.83 86.1031 1050.38C74.4181 1038.32 72.3931 1033.89 71.4181 1029.44C63.9341 996.29 80.1131 976.576 113.358 963.002C125.654 957.951 130.439 952.907 142.068 955.4C157.494 958.625 144.623 928.344 160.865 915.822C171.75 907.352 184.878 900.004 197.116 893.857C269.279 857.652 307.611 856.641 273.343 849.974C201.536 835.809 206.134 834.812 206.274 831.346C206.343 829.813 205.234 829.865 204.406 830.745C198.813 836.715 192.439 835.213 186.16 833.241C113.619 810.582 119.952 794.245 113.858 762.11C112.363 753.511 104.078 752.75 103.706 756.747C103.217 762.136 102.406 765.477 98.4171 764.183C92.4841 762.244 91.1841 766.766 89.5501 766.741C85.3011 766.656 81.8311 770.195 78.9601 772.67C69.6571 780.665 75.9451 765.723 62.8321 768.178C58.4791 768.988 52.7201 770.925 45.3121 770.929C45.0641 770.928 44.8061 771.141 44.5531 771.254C46.0531 773.128 46.8751 772.933 46.5161 774.119C46.0841 775.547 38.2521 773.241 37.2581 772.881C32.1281 771.059 30.9341 766.834 30.1721 760.846C26.9071 734.002 16.6121 725.948 34.8771 689.136C46.1381 666.547 43.6671 664.287 86.4071 668.888C88.8991 669.155 92.1651 668.54 95.2961 669.087C107.519 671.208 103.738 702.253 130.101 660.296C151.466 626.376 149.769 614.489 220.992 610.996C242.367 609.942 242.285 610.51 242.961 617.766C244.104 628.432 252.838 623.388 277.033 625.676C302.785 628.105 347.05 650.165 366.066 655.175C371.714 656.666 379.12 650.323 375.531 644.232C363.325 623.483 355.054 637.427 348.884 627.069C340.752 613.306 337.4 605.758 340.902 595.586C343.066 589.591 343.526 586.488 336.9 583.903C324.668 579.152 325.205 586.181 317.449 581.983C303.334 574.355 290.102 565.439 287.902 553.971C286.788 547.95 288.512 533.049 297.918 525.349C314.851 511.839 337.008 525.357 369.4 535.482C394.703 543.532 410.862 541.068 412.403 545.311C413.894 549.421 419.746 552.307 427.766 556.478C456.87 571.528 464.12 582.817 476.129 593.328C487.704 603.509 496.049 604.815 525.19 617.721C529.584 619.665 574.124 639.814 570.978 643.122C568.755 645.388 566.785 648.895 565.101 652.088C562.846 656.602 562.297 655.707 565.701 658.182C647.373 717.294 602.72 684.135 621.715 695.765C633.156 702.786 630.398 700.258 626.08 708.546C623.923 712.459 623.493 711.645 618.301 708.439C613.561 706.309 591.134 694.699 555.87 672.893C549.323 668.841 552.112 674.835 549.327 676.617C546.027 678.773 599.83 706.711 608.384 712.96C612.888 716.239 613.476 714.814 616.257 716.323C621.612 719.219 619.166 719.304 612.948 733.252C612.504 734.23 611.113 734.038 609.519 733.236C605.36 731.144 605.188 729.066 603.716 726.463C601.418 722.369 594.715 716.806 587.757 714.63C576.19 711.026 563.512 701.943 548.246 695.059C532.904 688.133 532.296 692.832 527.163 704.483C523.187 714.074 512.032 700.137 497.086 693.979ZM443.439 585.578C441.998 583.99 421.115 569.216 419.821 571.537C417.455 575.779 431.574 586.794 443.439 585.578ZM629.52 950.297C618.785 956.424 619.696 956.072 627.402 955.247C631.908 954.748 637.104 951.049 637.008 947.346C636.951 945.534 632.704 948.542 629.52 950.297ZM277.735 1019.38C274.581 1020.43 251.384 1026.97 254.045 1033.23C255.46 1036.47 345.789 1016.99 354.469 1014.53C376.679 1008.21 383.768 995.713 375.557 997.032C326.287 1004.92 329.796 1016.14 308.386 1014.2C302.195 1013.65 295.05 1012.94 277.735 1019.38ZM535.785 895.648C511.5 904.719 476.353 905.221 464.114 910.713C461.259 911.998 462.197 911.681 465.842 922.013C468.314 928.671 457.801 924.167 545.693 908.581C611.343 896.973 623.467 884.768 617.317 884.351C607.25 883.663 602.125 883.195 592.864 884.235C583.283 885.312 544.823 892.285 535.785 895.648ZM304.973 655.594C279.4 652.439 261.834 657.598 249.406 652.621C244.17 650.512 235.37 656.759 239.988 658.107L250.115 661.107L250.155 660.986C303.878 673.993 270.731 666.41 316.893 674.587C346.716 679.862 357.497 662.076 304.973 655.594Z" fill="#FFF2DF"/>
<path d="M863.432 498.118C860.041 492.501 866.795 481.696 867.853 467.615C869.029 451.553 891.462 393.01 898.228 364.012C903.841 339.91 899.74 328.664 896.423 332.178C890.814 338.129 879.563 367.998 859.942 346.94C854.529 341.18 858.41 347.043 851.032 344.323C841.181 340.893 843.475 329.069 838.016 333.571C832.106 338.544 836.658 374.715 838.069 391.98C841.825 438.119 844.668 530.803 841.897 560.25C840.893 570.751 843.342 565.691 844.405 574.162C849.825 617.798 847.757 610.717 830.35 611.33C824.939 611.539 826.506 587.181 826.304 586.181C825.013 579.925 821.658 577.112 821.014 565.09C819.324 535.19 817.348 530.781 817.159 513.226C816.845 486.129 827.307 485.32 786.613 383.06C785.415 380.07 781.186 383.919 781.761 387.29C785.631 410.781 789.932 439.681 787.347 450.737C780.892 478.15 803.213 557.058 800.273 582.159C799.33 590.354 799.333 591.883 799.736 593.562C805.98 619.38 804.597 613.099 782.906 618.444C776.548 619.788 771.589 597.972 777.619 595.334C780.586 593.964 779.554 587.995 779.268 581.074C779.03 575.109 781.607 576 778.444 568.251C777.411 565.733 776.541 561.763 778.032 559.879C782.012 554.829 780.454 556.67 776.078 541.467C750.681 453.303 743.49 418.36 731.127 388.842C711.14 341.189 731.393 351.831 705.188 286.401C691.623 252.393 697.359 246.936 690.085 229.709C689.04 227.234 687.103 225.123 686.61 221.716C686.772 222.377 686.424 219.364 685.385 219.326C680.154 219.135 680.956 243.897 677.642 272.655C672.49 318.321 663.02 310.036 671.177 329.778C675.968 341.399 680.53 336.584 685.204 348.663C686.997 353.251 690.607 354.711 686.91 359.9C683.27 365.035 677.243 379.479 671.098 377.279C666.281 375.549 663.819 363.931 657.289 358.89C651.103 354.123 647.147 348.888 642.409 343.924C627.777 328.574 623.633 335.077 610.587 323.133C608.538 321.267 555.122 267.097 553.786 267.748C552.713 268.27 552.765 287.419 590.564 325.103C613.327 347.731 583.427 323.965 630.767 377.736C646.464 395.592 662.197 413.82 676.004 433.194C700.543 467.564 697.064 470.477 690.387 476.638C669.371 496.28 668.032 486.58 678.587 503.63C697.385 534.164 709.356 583.448 724.304 614.678C736.6 640.368 737.035 624.614 742.154 638.498C743.881 643.176 743.319 641.601 730.415 648.874C715.239 657.82 715.655 660.38 712.838 656.425C692.737 628.285 724.35 657.149 649.622 565.825C617.582 526.821 627.469 520.725 617.539 526.701C596.231 539.93 599.408 540.63 593.701 533.94C583.339 521.842 588.191 522.114 583.704 516.092C568.973 496.356 563.662 471.6 556.384 475.349C552.368 477.448 554.033 480.633 554.952 492.933C559.243 547.038 526.063 505.013 587.385 571.064C663.91 653.273 663.687 651.299 663.183 654.813C662.812 657.454 662.497 658.021 664.146 660.339C666.23 663.259 669.487 665.875 672.49 667.528C680.883 672.132 677.62 665.822 685.62 669.778C688.19 671.043 690.809 672.992 692.191 674.742C694.423 677.565 689.986 676.954 672.795 697.396C671.773 696.642 670.694 696.074 669.728 695.133C660.511 686.131 645.947 678.878 637.773 673.047C622.637 662.258 629.469 662.654 613.542 650.854C497.947 565.511 554.747 597.282 524.36 597.957C502.959 598.35 503.305 593.436 481.902 560.254C475.664 550.56 481.589 553.248 480.919 543.726C480.329 536.19 486.726 532.948 484.077 529.779C478.972 523.649 477.274 529.214 465.565 527.653C452.582 525.951 435.986 517.504 434.568 506.37C433.764 500.324 432.975 492.204 433.689 486.18C436.454 465.428 467.41 463.152 476.197 471.329C482.327 477.035 487.799 483.321 492.643 490.111C494.42 492.6 494.88 494.994 493.836 497.657C490.01 507.408 504.988 511.844 510.59 506.283C523.652 493.552 536.348 509.092 538.123 492.864C540.204 473.816 531.406 475.24 526.936 463.016C522.893 451.808 519.021 461.874 510.663 453.099C491.992 433.466 491.322 424.646 478.187 408.634C458.541 384.697 446.89 371 426.028 338.303C410.656 314.141 403.696 306.92 417.038 289.336C426.101 277.467 438.763 268.912 429.603 255.103C400.487 211.194 388.855 211.086 401.418 187.03C412.527 166.134 414.581 167.578 427.65 161.389C452.088 150.137 475.323 165.305 492.82 185.879C501.438 195.986 507.713 198.952 508.967 210.794C509.859 218.984 517.011 216.863 524.934 215.099C542.957 210.958 551.998 202.1 621.982 285.924C654.322 325.22 652.378 321.655 650.073 302.822C641.338 230.198 643.798 234.17 647.113 233.218C648.594 232.793 648.202 231.754 647.109 231.249C639.695 227.84 639.157 221.297 639.098 214.695C638.249 138.911 655.743 139.618 684.828 123.956C692.558 119.814 690.736 111.684 686.819 112.608C681.422 113.888 678.092 114.007 678.098 109.878C678.128 103.644 673.403 103.77 672.925 102.206C671.702 98.147 667.241 95.868 664.006 93.952C655.426 88.795 664.949 88.025 665.052 82.434C665.137 77.635 658.714 71.872 655.326 61.407C655.25 61.171 654.969 60.993 654.783 60.789C653.457 62.812 653.895 63.531 652.655 63.566C651.161 63.61 650.952 55.429 650.99 54.369C651.318 43.47 665.29 44.615 680.742 32.859C694.357 22.547 717.467 24.238 734.418 27.03C754.973 30.577 756.595 28.145 765.101 69.19C766.112 74.057 771.391 80.851 763.431 87.57C753.646 95.901 764.036 101.392 776.251 105.212C804.269 114.012 825.142 112.857 838.18 131.775C839.897 134.295 857.249 164.387 866.271 194.61C869.505 205.583 853.249 198.429 857.453 212.83C862.938 231.968 867.73 240.914 866.68 266.444C864.665 315.419 863.545 322.078 864.06 330.994C864.395 336.819 872.625 342.003 877.406 336.609C885.027 328.081 885.477 322.886 884.467 318.259C882.803 310.53 880.164 310.386 893.185 297.677C911.212 280.338 921.916 296.02 922.746 281.145C923.458 268.049 916.941 270.777 918.52 262.099C921.681 244.654 926.338 227.406 940.699 223.417C956.72 218.968 971.253 224.059 976.869 239.967C983.401 258.633 974.503 288.873 982.358 328.065C986.49 349.633 981.895 329.712 977.039 359.019C971.766 391.333 963.264 401.794 957.024 416.414C949.984 432.878 952.741 442.046 947.498 484.255C947.044 487.892 942.431 523.636 939.055 522.029C934.351 519.841 928.288 519.231 925.251 518.675C923.846 518.426 904.697 579.769 904.668 580.769C904.557 583.035 906.066 581.566 904.859 586.631C901.938 598.835 903.478 596.722 894.139 594.744C889.768 593.948 890.407 593.282 891.839 587.35C892.399 582.123 896.493 557.128 906.222 516.967C908.046 509.49 903.185 513.939 900.664 511.901C897.593 509.451 887.764 569.269 884.496 579.301C882.786 584.559 884.311 584.719 883.742 587.853C882.766 593.238 880.982 591.751 875.372 591.071C865.738 589.765 864.903 590.709 865.51 586.714C866.635 579.321 870.759 582.043 874.611 570.967C878.128 560.847 874.581 563.177 878.655 541.584C885.519 505.207 885.586 500.774 871.741 499.886C865.167 499.371 864.255 499.472 863.432 498.118ZM954.263 382.936C955.325 381.071 962.884 356.629 960.275 356.128C955.516 355.213 949.414 372.042 954.263 382.936ZM664.641 672.953C655.504 664.628 656.119 665.386 659.251 672.476C661.131 676.647 666.213 680.412 669.746 679.173C671.467 678.552 667.291 675.441 664.641 672.953ZM490.386 359.558C488.413 356.884 475.002 336.857 469.889 341.325C468.824 342.248 467.45 340.336 490.052 381.414C519.838 435.287 523.51 440.114 534.985 447.44C538.583 449.72 544.632 450.868 541.947 445.636C519.191 401.239 509.566 407.968 504.82 387.094C503.415 381.038 501.879 374.022 490.386 359.558ZM688.17 566.421C671.991 546.171 660.61 512.919 651.572 502.99C649.345 500.543 650.121 501.558 639.502 509.595C637.872 510.884 638.753 510.68 646.291 522.102C672.308 561.573 679.635 589.253 711.878 632.273C719.1 641.901 725.04 643.647 724.227 640.407C721.839 630.958 720.76 625.891 716.762 617.122C712.733 608.287 694.148 573.922 688.17 566.421ZM844.767 273.106C839.84 247.573 829.587 232.721 830.481 219.339C830.87 213.712 822.251 207.184 822.392 211.993L822.659 222.552L822.786 222.554C824.836 249.653 827.968 306.016 840.166 312.056C850.89 317.261 847.034 284.823 844.767 273.106Z" fill="#FFF2DF"/>
<path d="M1170.14 753.311C1179.72 749.765 1181.55 753.719 1197.5 749.865C1223.22 743.582 1314.38 754.754 1334.12 739.259C1338.91 735.499 1337.45 735.788 1319.02 730.705C1308.03 727.685 1303.08 717.442 1309.92 705.279C1313.39 699.085 1309.97 701.883 1309.74 699.109C1308.94 689.892 1312.32 688.956 1317 683.755C1337.53 660.742 1180.36 736.161 1101.5 753.927C1097.44 754.835 1095.29 755.466 1093.85 757.223C1091.43 760.142 1087.57 760.81 1080.81 764.382C1072.16 768.873 1078.05 767.333 1061.82 771.963C1052.46 774.613 1053.32 770.832 1049.44 759.046C1048.08 755.456 1061.9 750.407 1068.03 748.768C1072.18 747.656 1070.94 748.669 1079.16 742.26C1087.76 735.535 1090.38 737.153 1114.71 725.976C1171.01 700.013 1155.81 727.554 1252.95 646.85C1255.41 644.786 1250.41 641.982 1247.39 643.576C1185.13 675.932 1192.26 666.12 1179.04 669.929C1157.7 676.065 1087.53 717.762 1067.94 721.756C1052.55 724.964 1061.89 723.21 1044.93 731.764C1037 735.766 1037.05 731.896 1032.45 724.048C1027.79 715.766 1026.18 715.331 1029.06 711.586C1033.22 706.175 1044.82 700.477 1048.34 704.245C1050.6 706.652 1055.96 703.814 1062.42 701.419C1068.02 699.34 1068 702.069 1074.37 696.653C1082.36 689.835 1083.51 696.658 1087.99 694.058C1087.99 694.058 1205.43 614.946 1205.43 614.944C1232.25 596.029 1233.59 591.361 1248.97 581.693C1265.64 571.2 1275.99 571.22 1291.13 561.333C1314.79 545.862 1325.62 531.121 1346.74 520.633C1354.4 516.83 1362.14 513.165 1368.7 507.468C1370.73 505.707 1372.13 503.213 1375.21 501.686C1374.64 502.045 1377.39 500.777 1377.1 499.781C1375.64 494.741 1352.03 503.308 1324.02 509.004C1278.85 518.252 1283.91 506.752 1267.72 520.587C1258.16 528.743 1264.15 531.584 1254.12 539.772C1250.28 542.908 1250.09 546.772 1243.96 544.879C1233.5 541.633 1234.05 544.035 1226.42 539.997C1214.97 533.933 1232.05 526.733 1235.74 516.396C1239.59 505.51 1246.29 498.508 1249.63 487.809C1257.47 462.721 1239.33 491.998 1271.98 428.414C1274.13 424.226 1291.09 390.461 1290.5 389.843C1289.49 388.787 1277.52 395.079 1265 412.65C1247.56 437.109 1244.39 452.821 1237.84 456.639C1223.11 465.213 1182.73 553.732 1147.52 584.051C1141.83 588.946 1138.89 587.293 1129.13 581.314C1109.82 569.201 1116.09 567.741 1104.6 581.318C1081.28 608.744 1038.15 635.124 1013.02 659.006C992.408 678.572 1007.52 674.263 995.909 683.374C990.756 687.421 993.127 683.219 977.669 671.316C967.946 663.454 967.282 663.939 969.62 660.795C990.545 632.57 971.87 672.917 1036.39 572.783C1068.76 522.335 1078.77 542.392 1049.67 518.659C1045.42 515.069 1046.71 514.376 1049.54 509.774C1057.87 496.193 1059.09 500.899 1063.44 494.777C1077.71 474.663 1099.64 461.996 1093.81 456.24C1089.6 452.243 1086.2 457.535 1067.33 463.812C1023.12 478.297 1067.05 420.749 964.632 601.404C957.885 613.345 957.631 612.871 956.024 613.154C953.418 613.619 952.788 613.495 951.096 615.779C947.029 621.285 944.947 631.304 947.713 632.915C950.024 634.399 948.514 642.992 945.932 646.855C943.997 649.757 944.473 646.284 918.781 635.57C921.289 628.058 922.79 627.333 926.431 613.176C929.592 600.984 931.289 589.906 937.593 580.333C944.704 569.448 943.715 565.066 962.368 513.499C976.339 474.753 979.957 472.858 975.123 472.116C967.342 470.817 965.332 456.698 964.86 448.823C964.521 442.834 968.153 438.869 975.772 429.777C988.911 413.881 991.274 409.339 994.545 407.375C998.208 405.182 998.542 408.453 1005.6 405.587C1012.58 402.688 1017.63 407.775 1019.83 404.273C1024.08 397.523 1018.27 397.63 1016.14 386.012C1013.75 373.157 1016.63 354.75 1026.79 349.954C1051.32 338.198 1057.71 341.083 1066.35 352.319C1080.04 370.219 1074.22 381.186 1060.17 400.169C1058.35 402.629 1056.21 403.801 1053.36 403.628C1048.07 403.304 1045.61 407.099 1045.3 411.391C1044.41 423.972 1054.61 420.531 1059.02 431.21C1060.99 435.971 1060.8 440.492 1063.26 442.841C1067.44 446.918 1083.02 443.54 1089.14 433.09C1090.61 430.582 1092.38 427.649 1096.49 424.441C1105.9 417.153 1095.15 416.55 1100.93 405.897C1113.87 382.078 1122.04 378.753 1133.24 361.322C1149.97 335.264 1159.42 319.958 1184.11 290.065C1206.8 262.669 1208.1 258.086 1238.06 270.54C1247.23 274.402 1256.34 277.978 1264.4 267.877C1297.44 226.402 1293.69 215.685 1320.5 220.127C1336.97 222.965 1341.19 225.344 1344.61 228.373C1370.25 250.848 1368.47 276.146 1349.62 306.639C1342.65 317.949 1341.75 324.829 1330.89 329.675C1316.53 336.126 1344.63 352.863 1338.96 372.681C1328.06 411.092 1292.31 462.399 1280.18 482.438C1262.16 512.216 1281.46 490.526 1342.52 467.765C1350.5 464.807 1350.68 465.727 1352.06 467.767C1352.93 469.04 1353.79 468.346 1353.93 467.151C1355.09 457.302 1363.11 455.386 1380.01 450.292C1431.94 434.66 1442.75 444.709 1458.85 460.944C1467.09 469.305 1470.94 474.068 1476.41 472.338C1484.79 469.691 1470.85 461.437 1478.86 458.826C1484.79 456.914 1483.2 452.474 1484.54 451.534C1488.03 449.105 1488.76 444.188 1489.64 440.489C1492.37 428.592 1496.2 444.31 1505.32 434.657C1508.37 431.44 1511.9 426.476 1517.88 422.129C1518.08 421.984 1518.16 421.662 1518.3 421.422C1515.96 420.796 1515.41 421.435 1514.99 420.271C1514.63 419.263 1524.12 413.365 1530.07 416.373C1534.12 418.458 1537.62 423.508 1543.06 429.001C1554.13 440.205 1571.04 442.242 1576.52 498.786C1577.42 507.602 1574.7 511.657 1544.59 528.922C1540.28 531.397 1535.49 538.528 1526.58 533.04C1510.2 522.978 1513.78 553.262 1515.12 572.472C1516.29 587.222 1519.56 605.956 1505.2 621.285C1490.19 637.268 1474.78 652.013 1456.81 664.416C1447.41 670.868 1449.17 653.164 1436.75 661.608C1428.89 666.923 1422.68 671.748 1415.71 675.869C1393.44 689.032 1344.65 697.186 1326.33 704.299C1320.88 706.411 1318.61 715.892 1325.09 718.715C1347.18 728.33 1345.63 712.205 1356.75 716.95C1371.77 723.465 1378.52 727.543 1381.7 737.74C1383.47 743.863 1384.91 746.647 1391.79 744.845C1404.48 741.504 1399.94 736.129 1408.68 734.97C1445.87 730.015 1451.43 739.485 1456.9 754.083C1470.63 791.115 1411.7 794.25 1380.26 808.405C1365.21 815.154 1356.34 822.359 1353.39 820.428C1346.22 815.642 1328.73 824.418 1300.36 822.305C1252.48 818.789 1285.44 813.973 1219.58 828.207C1214.91 829.218 1167.13 839.194 1167.63 834.645C1168.22 829.208 1167.05 824.528 1166.55 820.28C1166.39 818.925 1102.09 819.45 1101.1 819.744C1098.92 820.342 1100.81 821.342 1095.63 821.754C1083.2 822.728 1085.42 822.949 1084.89 816.583C1083.99 809.614 1081.1 810.389 1106.06 807.076C1117.05 805.637 1134.88 803.522 1162.33 801.482C1169.97 800.919 1164.21 797.697 1165.44 794.609C1166.92 790.913 1106.83 799.927 1096.27 799.891C1089.02 799.878 1083.97 806.021 1082.76 797.672C1080.27 784.667 1079.7 784.746 1083.45 784.134C1088.06 783.386 1089.39 784.947 1092.13 786.205C1096.4 788.17 1105.09 788.731 1112.01 786.405C1137.86 777.653 1172.87 785.944 1167.97 763.438C1166.31 756.366 1165.14 755.145 1170.14 753.311ZM1304.58 806.099C1306.68 806.538 1332.25 806.217 1331.95 803.576C1331.41 798.75 1313.52 798.129 1304.58 806.099ZM939.335 620.191C944.436 608.931 943.905 609.751 938.166 614.929C934.79 618.038 932.786 623.999 935.008 626.971C936.107 628.41 937.786 623.48 939.335 620.191ZM1183.7 357.836C1185.63 355.14 1200.57 336.21 1194.74 332.726C1191.68 330.968 1130.02 399.749 1124.44 406.836C1110.15 424.994 1111.78 439.251 1117.64 433.373C1152.87 398.091 1143.42 391.109 1161.94 380.031C1167.26 376.836 1173.47 373.222 1183.7 357.836ZM1047.75 609.71C1062.03 588.063 1090.16 567.037 1096.83 555.353C1098.16 553.02 1098.81 553.736 1086.8 545.889C1085.07 544.728 1085.54 545.506 1076.99 556.194C1053.05 586.083 990.032 643.943 986.712 664.062C986.261 666.596 987.061 667.623 988.432 666.771C996.757 661.585 1001.41 658.857 1008.32 652.526C1015.46 646.005 1042.44 617.742 1047.75 609.71ZM1375.52 668.073C1398.07 655.605 1409.26 641.108 1422.24 637.835C1427.71 636.466 1431.16 626.241 1426.64 627.863L1416.68 631.385L1416.72 631.507C1365.6 652.539 1396.87 639.207 1354.72 659.705C1327.39 673.003 1329.3 693.635 1375.52 668.073Z" fill="#FFF2DF"/>
</svg>
