<svg width="764" height="1835" viewBox="0 0 764 1835" fill="none" xmlns="http://www.w3.org/2000/svg">
<g clip-path="url(#clip0_12_638)">
<path d="M369.541 0C359.771 5.01 346.111 -0.77 336.641 6.7C307.791 26.07 280.14 56.3703 282.9 93.5703C283.41 103.31 270.629 116.52 281.409 121.83C278.629 134.04 292.561 123.56 295.041 132.07C304.831 154.71 310.32 179.741 325.02 200.141C328.18 205.711 320.031 208.61 317.591 212.65C310.961 219.89 314.909 230.76 313.959 238.47C317.159 240.79 321.57 238.04 324.77 240.37C326.3 245.28 317.711 247.54 319.641 252.4C322.111 257.28 330.901 254.5 327.291 248.47C322.501 241.79 333.28 231.54 337.48 239.85C345.47 237.88 335.12 226.74 342.15 224C349.11 227.29 355.061 232.489 361.941 236.009C362.601 249.659 360.491 265.219 349.691 274.759C334.531 285.309 314.359 287.58 301.459 301.5C272.409 310.27 233.771 312.491 218.941 343.941C198.521 392.211 209.54 446.341 201.83 496.891C197.81 527.331 196.38 558.921 183.18 587.191C173.52 607.681 162.879 627.94 156.859 649.9C149.129 682.08 145.22 715.49 132.17 746.18C121.21 772.17 111.901 798.839 100.941 824.809C99.4006 833.449 83.2994 826.171 87.6594 836.991C73.0494 844.191 53.9297 845.711 38.2797 852.141C19.1397 874.151 5.7 901.63 0 930.18V931.08C11.62 941.34 15.05 913.88 22.9 910.03C32.72 917.51 46.31 919.08 57.65 915.17C59.41 922.52 68.6103 923.701 73.1203 918.091C88.2403 896.761 116.93 892.341 132.53 871.491C134.11 866.181 141.52 870.751 142.37 865.441C143.32 862.321 138.45 859.911 140.72 856.841C149.94 841.081 156.65 823.1 166.18 808.12C172.55 811.58 171.561 823.69 172.891 830.33C171.201 867.07 177.661 903.48 187.441 938.75C189.631 946.22 184.22 952.85 183.15 960C191.64 983.75 195.491 1010.15 203.491 1033.39C185.661 1041.05 201.48 1057.27 206.22 1068.96C215.91 1110.28 229.77 1150.52 239.05 1191.94C244.58 1240.47 255.17 1288.71 258.57 1337.55C247.71 1395.6 254.531 1455.52 242.341 1513.31C228.331 1547.62 215.25 1582.31 201.85 1616.86C186.24 1652.03 177.9 1690.45 175.82 1728.7C169.48 1751.07 162.83 1773.73 156.32 1795.83C178.49 1803.03 197.63 1820.07 219.97 1828.09C232.98 1834.89 236.97 1815.73 244.08 1810.06C260.17 1817.18 276.65 1823.86 293.75 1828.28C303.99 1831.2 309.08 1817.88 318.7 1818.12C319.53 1824.16 311.5 1829.46 315.15 1835H329.47C335.55 1832.74 342.14 1834.35 348.37 1835H375.4C392.3 1832.63 407.019 1823.19 423.909 1820.13C411.169 1795.16 442.14 1785.45 452.08 1767.09C463.15 1751.56 481.78 1745.78 498.05 1737.64C496.06 1721.12 490.27 1705.23 488.18 1688.79C489.8 1657.6 493.83 1626.52 491.88 1595.18C498.19 1594.41 496.04 1605.3 498.75 1609.08C502.39 1614.35 506.449 1619.66 510.359 1624.78C531.009 1621.91 555.539 1618.48 573.509 1628.86C599.039 1631.99 624.6 1628.22 650.2 1628.84C665.44 1627.86 669.65 1611.62 677.83 1601.66C684.09 1584.29 673.169 1563.66 684.109 1547.26C689.989 1532.05 682.549 1514.22 691.209 1500.04C707.329 1465.44 711.631 1424.34 701.041 1387.84C716.371 1339.02 735.38 1289.59 739.9 1237.95C750.09 1185.33 755.969 1131.58 755.709 1077.7C759.679 1029.63 764.6 981.62 764 933.3V823.57C754.19 794.11 756.5 763.18 752.17 732.78C747.26 657.34 737.64 581.611 713.27 509.741C699.51 480.021 685.74 450.28 670.92 421.08C652.71 392.33 641.02 359.9 617.53 334.47C597.32 306.73 578.25 277.979 556.53 251.359C535.52 242.939 515.21 255.769 496.43 263.659C471.24 266.939 454.43 239.3 453.92 217.15C452.984 213.026 455.057 211.746 457.884 211.006C459.952 213.44 460.896 217.093 458.772 220.055C455.162 226.085 463.952 228.866 466.422 223.986C468.352 219.126 459.762 216.865 461.292 211.955C461.275 211.313 461.267 210.864 461.253 210.275C463.567 209.787 465.841 209.13 467.13 207.33C466.36 194.05 465.28 174.78 479.82 167.63C486.14 162.2 475.12 151.67 484.45 148.23C493.1 137.78 480.429 127.13 478.659 117.23C497.209 118.21 507.251 94.7803 498.991 80.1703C487.041 75.5603 476.03 65.5106 476.53 51.6406C473.8 37.8406 457.551 34.9503 448.541 26.5203C446.153 23.6949 443.137 22.2135 440.002 21.0641C439.363 20.5238 438.516 20.3219 437.67 20.2578C432.284 18.4845 426.899 16.979 423.991 10.85C406.651 11.18 391.19 1.44 373.87 0H369.541ZM465.3 1111.93C469.531 1111.67 465.519 1119.41 467 1121.83C469.76 1187.92 469.17 1253.98 473.07 1319.99C468.85 1377.7 483.12 1435.16 479.85 1492.8C474.66 1486.63 471.81 1472.45 469.45 1462.51C478.28 1423.26 466.66 1381.84 458.32 1342.99C464.23 1316.23 463.681 1288.67 463.691 1261.46C462.181 1240.85 445.311 1225.38 445.941 1204.63C446.051 1199.08 433.53 1198.51 438.48 1192.55C453.65 1167.42 446.831 1135.94 464.341 1112.09C464.7 1112 465.018 1111.94 465.3 1111.93ZM514.53 1544.34C514.682 1544.37 514.818 1544.41 514.959 1544.45C514.635 1544.75 514.326 1545.06 514.034 1545.38C514.201 1545.03 514.361 1544.68 514.53 1544.34ZM543.309 1548.14C543.324 1548.15 543.338 1548.16 543.353 1548.17C543.326 1548.19 543.302 1548.2 543.275 1548.22C543.287 1548.19 543.297 1548.17 543.309 1548.14ZM535.23 1550.08C535.515 1550.24 535.786 1550.41 536.05 1550.59C535.659 1550.49 535.26 1550.46 534.855 1550.52C534.979 1550.38 535.106 1550.22 535.23 1550.08ZM574.678 1575.24C575.08 1575.89 575.491 1576.52 575.92 1577.12C575.796 1577.47 575.658 1577.81 575.513 1578.14C575.258 1577.17 574.981 1576.2 574.678 1575.24ZM538.963 1606.21C538.891 1606.39 538.81 1606.57 538.741 1606.76C538.52 1606.84 538.323 1606.89 538.12 1606.95C538.416 1606.72 538.695 1606.47 538.963 1606.21Z" fill="#FFF2DF"/>
</g>
<defs>
<clipPath id="clip0_12_638">
<rect width="764" height="1835" fill="white"/>
</clipPath>
</defs>
</svg>
