<svg id="visual" viewBox="0 0 900 600" width="900" height="600" xmlns="http://www.w3.org/2000/svg" xmlns:xlink="http://www.w3.org/1999/xlink" version="1.1"><path d="M0 350L21.5 361.8C43 373.7 86 397.3 128.8 404.2C171.7 411 214.3 401 257.2 400.2C300 399.3 343 407.7 385.8 404.7C428.7 401.7 471.3 387.3 514.2 378.2C557 369 600 365 642.8 365.5C685.7 366 728.3 371 771.2 373.8C814 376.7 857 377.3 878.5 377.7L900 378L900 601L878.5 601C857 601 814 601 771.2 601C728.3 601 685.7 601 642.8 601C600 601 557 601 514.2 601C471.3 601 428.7 601 385.8 601C343 601 300 601 257.2 601C214.3 601 171.7 601 128.8 601C86 601 43 601 21.5 601L0 601Z" fill="#561d01"></path><path d="M0 470L21.5 466C43 462 86 454 128.8 444.3C171.7 434.7 214.3 423.3 257.2 415.7C300 408 343 404 385.8 402.3C428.7 400.7 471.3 401.3 514.2 414.3C557 427.3 600 452.7 642.8 454C685.7 455.3 728.3 432.7 771.2 423.7C814 414.7 857 419.3 878.5 421.7L900 424L900 601L878.5 601C857 601 814 601 771.2 601C728.3 601 685.7 601 642.8 601C600 601 557 601 514.2 601C471.3 601 428.7 601 385.8 601C343 601 300 601 257.2 601C214.3 601 171.7 601 128.8 601C86 601 43 601 21.5 601L0 601Z" fill="#4a1903"></path><path d="M0 453L21.5 455.3C43 457.7 86 462.3 128.8 469C171.7 475.7 214.3 484.3 257.2 483.2C300 482 343 471 385.8 468.8C428.7 466.7 471.3 473.3 514.2 474.5C557 475.7 600 471.3 642.8 476.3C685.7 481.3 728.3 495.7 771.2 497C814 498.3 857 486.7 878.5 480.8L900 475L900 601L878.5 601C857 601 814 601 771.2 601C728.3 601 685.7 601 642.8 601C600 601 557 601 514.2 601C471.3 601 428.7 601 385.8 601C343 601 300 601 257.2 601C214.3 601 171.7 601 128.8 601C86 601 43 601 21.5 601L0 601Z" fill="#3e1503"></path><path d="M0 503L21.5 501C43 499 86 495 128.8 499C171.7 503 214.3 515 257.2 520.5C300 526 343 525 385.8 519.3C428.7 513.7 471.3 503.3 514.2 503.5C557 503.7 600 514.3 642.8 513.3C685.7 512.3 728.3 499.7 771.2 497.5C814 495.3 857 503.7 878.5 507.8L900 512L900 601L878.5 601C857 601 814 601 771.2 601C728.3 601 685.7 601 642.8 601C600 601 557 601 514.2 601C471.3 601 428.7 601 385.8 601C343 601 300 601 257.2 601C214.3 601 171.7 601 128.8 601C86 601 43 601 21.5 601L0 601Z" fill="#321103"></path><path d="M0 557L21.5 557.8C43 558.7 86 560.3 128.8 559.2C171.7 558 214.3 554 257.2 549.7C300 545.3 343 540.7 385.8 537.5C428.7 534.3 471.3 532.7 514.2 531.8C557 531 600 531 642.8 537.3C685.7 543.7 728.3 556.3 771.2 560.3C814 564.3 857 559.7 878.5 557.3L900 555L900 601L878.5 601C857 601 814 601 771.2 601C728.3 601 685.7 601 642.8 601C600 601 557 601 514.2 601C471.3 601 428.7 601 385.8 601C343 601 300 601 257.2 601C214.3 601 171.7 601 128.8 601C86 601 43 601 21.5 601L0 601Z" fill="#270d01"></path></svg>